<?xml version="1.0" encoding="utf-8"?>
<!-- Svg Vector Icons : http://www.onlinewebfonts.com/icon -->
<!DOCTYPE svg PUBLIC "-//W3C//DTD SVG 1.1//EN" "http://www.w3.org/Graphics/SVG/1.1/DTD/svg11.dtd">
<svg version="1.1" xmlns="http://www.w3.org/2000/svg" xmlns:xlink="http://www.w3.org/1999/xlink" x="0px" y="0px" viewBox="0 0 1000 1000" enable-background="new 0 0 1000 1000" xml:space="preserve">
<metadata> Svg Vector Icons : http://www.onlinewebfonts.com/icon </metadata>
<g><g transform="translate(0.000000,356.000000) scale(0.100000,-0.100000)"><path d="M2811.7,1272.3c-223.8-29.1-485.9-131.8-674.5-266.7c-102.7-72.1-254.5-228.4-329.6-335.7c-73.6-108.8-165.5-311.2-200.8-446.1c-62.9-243.7-55.2-630,16.9-847.7c39.9-118,87.4-397,107.3-634.6c35.3-424.6-44.4-718.9-233-855.3c-116.5-85.8-211.5-110.4-472.1-122.6c-268.3-12.3-340.3-32.2-507.4-139.5c-130.3-84.3-285.1-236.1-328-320.4c-72-141-92-239.1-90.4-452.2c0-136.4,9.2-229.9,26.1-298.9c110.4-423.1,482.9-712.8,915.1-711.2c259.1,1.5,472.1,93.5,653,286.6c170.2,179.3,251.4,386.3,251.4,642.3c0,167.1-18.4,257.5-95,444.5c-145.6,364.8-107.3,626.9,127.2,858.4c125.7,124.2,314.2,222.3,544.2,282.1c203.9,53.7,584,67.4,800.2,30.7c427.7-73.6,722-269.8,817-541.1c58.2-164,33.7-410.8-55.2-565.6c-125.7-217.7-157.9-516.6-78.2-749.6c58.3-168.6,127.2-275.9,260.6-403.1c314.2-297.4,820.1-366.4,1235.5-168.6c107.3,50.6,153.3,85.8,260.6,194.7c200.8,203.9,280.5,397,280.5,676c0,156.4-44.4,320.4-119.6,450.7c-87.4,150.2-113.4,386.3-59.8,553.4c59.8,193.1,251.4,371,504.3,466c233,88.9,306.6,101.2,651.5,99.6c291.3,0,325-3.1,466-41.4c231.5-62.8,418.5-159.4,544.2-283.6c231.5-228.4,272.9-495.1,131.8-846.2c-81.2-197.7-99.6-280.5-99.6-444.5c0-262.1,76.6-467.5,240.7-645.3c352.6-381.7,904.4-401.6,1310.6-44.5c177.8,154.8,269.8,377.1,283.6,682.1c7.7,156.4,3.1,203.9-24.5,314.2c-79.7,320.4-263.6,524.2-571.8,637.7c-42.9,16.9-153.3,29.1-311.2,36.8c-191.6,9.2-263.7,18.4-331.1,44.5c-236.1,90.4-344.9,254.5-383.2,577.9c-26.1,228.4,26,729.6,101.2,965.7c79.7,249.9,88.9,620.8,24.5,869.1c-104.2,397-366.3,722-729.6,904.4c-476.7,237.6-1008.6,202.3-1448.6-96.6c-99.6-69-275.9-243.7-338.8-338.8c-78.2-115-395.5-458.3-492.1-527.3c-141-104.2-236.1-134.9-410.8-127.2c-174.8,6.1-259.1,41.4-413.9,171.7c-108.8,90.4-371,377.1-441.5,482.9c-62.9,93.5-240.7,269.8-340.3,338.8C3500,1223.2,3135.2,1315.2,2811.7,1272.3z M5247.5-314.2c423.1-108.8,717.4-487.5,718.9-925.9c1.5-254.4-88.9-478.3-266.7-666.8c-131.8-138-222.3-197.7-378.6-249.9c-102.7-33.7-144.1-39.9-317.3-39.9c-173.2,0-214.6,6.1-317.3,39.9c-156.3,52.1-246.8,111.9-375.6,246.8c-268.3,283.6-343.4,659.1-202.3,1022.4c105.8,271.3,358.7,496.7,643.8,573.3C4865.8-283.6,5127.9-283.6,5247.5-314.2z"/></g></g>
</svg>